<svg width="60" height="60" viewBox="0 0 60 60" fill="none" xmlns="http://www.w3.org/2000/svg">
<rect width="60" height="60" rx="12" fill="black"/>
<path d="M18.4444 22.7931H4V37.9655H18.4444V22.7931Z" fill="white"/>
<path d="M24.6855 25.1051L21.7685 28.354L32.0785 38.5674L34.9955 35.3186L24.6855 25.1051Z" fill="white"/>
<path d="M24.6856 25.1052C25.324 24.3941 26.0895 23.822 26.9384 23.4217C27.7874 23.0214 28.703 22.8006 29.6332 22.772C30.5633 22.7434 31.4896 22.9075 32.3594 23.255C33.2292 23.6024 34.0253 24.1264 34.7022 24.7971C35.3792 25.4677 35.9238 26.2718 36.3049 27.1634C36.686 28.0552 36.8962 29.017 36.9234 29.994C36.9507 30.971 36.7944 31.944 36.4637 32.8576C36.1329 33.7713 35.634 34.6075 34.9955 35.3185L29.8406 30.2119L24.6856 25.1052Z" fill="white"/>
<path d="M48.5239 37.9655C52.5126 37.9655 55.7461 34.5691 55.7461 30.3793C55.7461 26.1896 52.5126 22.7931 48.5239 22.7931C44.5352 22.7931 41.3017 26.1896 41.3017 30.3793C41.3017 34.5691 44.5352 37.9655 48.5239 37.9655Z" fill="white"/>
</svg>
