<svg width="84" height="40" viewBox="0 0 84 40" fill="none" xmlns="http://www.w3.org/2000/svg">
<path d="M5.648 25.04C6.34133 25.04 6.96 25.184 7.504 25.472C8.05867 25.76 8.49067 26.1867 8.8 26.752C9.10933 27.3173 9.264 28 9.264 28.8V34H7.456V29.072C7.456 28.2827 7.25867 27.68 6.864 27.264C6.46933 26.8373 5.93067 26.624 5.248 26.624C4.56533 26.624 4.02133 26.8373 3.616 27.264C3.22133 27.68 3.024 28.2827 3.024 29.072V34H1.2V25.184H3.024V26.192C3.32267 25.8293 3.70133 25.5467 4.16 25.344C4.62933 25.1413 5.12533 25.04 5.648 25.04ZM19.6706 29.376C19.6706 29.7067 19.6493 30.0053 19.6066 30.272H12.8706C12.924 30.976 13.1853 31.5413 13.6546 31.968C14.124 32.3947 14.7 32.608 15.3826 32.608C16.364 32.608 17.0573 32.1973 17.4626 31.376H19.4306C19.164 32.1867 18.6786 32.8533 17.9746 33.376C17.2813 33.888 16.4173 34.144 15.3826 34.144C14.54 34.144 13.7826 33.9573 13.1106 33.584C12.4493 33.2 11.9266 32.6667 11.5426 31.984C11.1693 31.2907 10.9826 30.4907 10.9826 29.584C10.9826 28.6773 11.164 27.8827 11.5266 27.2C11.9 26.5067 12.4173 25.9733 13.0786 25.6C13.7506 25.2267 14.5186 25.04 15.3826 25.04C16.2146 25.04 16.956 25.2213 17.6066 25.584C18.2573 25.9467 18.764 26.4587 19.1266 27.12C19.4893 27.7707 19.6706 28.5227 19.6706 29.376ZM17.7666 28.8C17.756 28.128 17.516 27.5893 17.0466 27.184C16.5773 26.7787 15.996 26.576 15.3026 26.576C14.6733 26.576 14.1346 26.7787 13.6866 27.184C13.2386 27.5787 12.972 28.1173 12.8866 28.8H17.7666ZM29.4496 25.184V34H27.6256V32.96C27.3376 33.3227 26.959 33.6107 26.4896 33.824C26.031 34.0267 25.5403 34.128 25.0176 34.128C24.3243 34.128 23.7003 33.984 23.1456 33.696C22.6016 33.408 22.1696 32.9813 21.8496 32.416C21.5403 31.8507 21.3856 31.168 21.3856 30.368V25.184H23.1936V30.096C23.1936 30.8853 23.391 31.4933 23.7856 31.92C24.1803 32.336 24.719 32.544 25.4016 32.544C26.0843 32.544 26.623 32.336 27.0176 31.92C27.423 31.4933 27.6256 30.8853 27.6256 30.096V25.184H29.4496ZM33.6803 26.464C33.9469 26.016 34.2989 25.6693 34.7363 25.424C35.1843 25.168 35.7123 25.04 36.3203 25.04V26.928H35.8563C35.1416 26.928 34.5976 27.1093 34.2243 27.472C33.8616 27.8347 33.6803 28.464 33.6803 29.36V34H31.8563V25.184H33.6803V26.464ZM41.4049 32.368L43.9009 25.184H45.8369L42.4769 34H40.3009L36.9569 25.184H38.9089L41.4049 32.368ZM51.0396 34.144C50.2076 34.144 49.4556 33.9573 48.7836 33.584C48.1116 33.2 47.5836 32.6667 47.1996 31.984C46.8156 31.2907 46.6236 30.4907 46.6236 29.584C46.6236 28.688 46.821 27.8933 47.2156 27.2C47.6103 26.5067 48.149 25.9733 48.8316 25.6C49.5143 25.2267 50.277 25.04 51.1196 25.04C51.9623 25.04 52.725 25.2267 53.4076 25.6C54.0903 25.9733 54.629 26.5067 55.0236 27.2C55.4183 27.8933 55.6156 28.688 55.6156 29.584C55.6156 30.48 55.413 31.2747 55.0076 31.968C54.6023 32.6613 54.0476 33.2 53.3436 33.584C52.6503 33.9573 51.8823 34.144 51.0396 34.144ZM51.0396 32.56C51.509 32.56 51.9463 32.448 52.3516 32.224C52.7676 32 53.1036 31.664 53.3596 31.216C53.6156 30.768 53.7436 30.224 53.7436 29.584C53.7436 28.944 53.621 28.4053 53.3756 27.968C53.1303 27.52 52.805 27.184 52.3996 26.96C51.9943 26.736 51.557 26.624 51.0876 26.624C50.6183 26.624 50.181 26.736 49.7756 26.96C49.381 27.184 49.0663 27.52 48.8316 27.968C48.597 28.4053 48.4796 28.944 48.4796 29.584C48.4796 30.5333 48.7196 31.2693 49.1996 31.792C49.6903 32.304 50.3036 32.56 51.0396 32.56ZM61.1948 29.536L64.0428 34H61.9788L60.0748 31.008L58.2828 34H56.3788L59.2268 29.664L56.3788 25.184H58.4428L60.3468 28.176L62.1388 25.184H64.0428L61.1948 29.536ZM66.1391 34.112C65.8085 34.112 65.5311 34 65.3071 33.776C65.0831 33.552 64.9711 33.2747 64.9711 32.944C64.9711 32.6133 65.0831 32.336 65.3071 32.112C65.5311 31.888 65.8085 31.776 66.1391 31.776C66.4591 31.776 66.7311 31.888 66.9551 32.112C67.1791 32.336 67.2911 32.6133 67.2911 32.944C67.2911 33.2747 67.1791 33.552 66.9551 33.776C66.7311 34 66.4591 34.112 66.1391 34.112ZM68.6545 29.552C68.6545 28.6667 68.8358 27.8827 69.1985 27.2C69.5718 26.5173 70.0732 25.9893 70.7025 25.616C71.3425 25.232 72.0465 25.04 72.8145 25.04C73.5078 25.04 74.1105 25.1787 74.6225 25.456C75.1452 25.7227 75.5612 26.0587 75.8705 26.464V25.184H77.7105V34H75.8705V32.688C75.5612 33.104 75.1398 33.4507 74.6065 33.728C74.0732 34.0053 73.4652 34.144 72.7825 34.144C72.0252 34.144 71.3318 33.952 70.7025 33.568C70.0732 33.1733 69.5718 32.6293 69.1985 31.936C68.8358 31.232 68.6545 30.4373 68.6545 29.552ZM75.8705 29.584C75.8705 28.976 75.7425 28.448 75.4865 28C75.2412 27.552 74.9158 27.2107 74.5105 26.976C74.1052 26.7413 73.6678 26.624 73.1985 26.624C72.7292 26.624 72.2918 26.7413 71.8865 26.976C71.4812 27.2 71.1505 27.536 70.8945 27.984C70.6492 28.4213 70.5265 28.944 70.5265 29.552C70.5265 30.16 70.6492 30.6933 70.8945 31.152C71.1505 31.6107 71.4812 31.9627 71.8865 32.208C72.3025 32.4427 72.7398 32.56 73.1985 32.56C73.6678 32.56 74.1052 32.4427 74.5105 32.208C74.9158 31.9733 75.2412 31.632 75.4865 31.184C75.7425 30.7253 75.8705 30.192 75.8705 29.584ZM81.0343 24.016C80.7036 24.016 80.4263 23.904 80.2023 23.68C79.9783 23.456 79.8663 23.1787 79.8663 22.848C79.8663 22.5173 79.9783 22.24 80.2023 22.016C80.4263 21.792 80.7036 21.68 81.0343 21.68C81.3543 21.68 81.6263 21.792 81.8503 22.016C82.0743 22.24 82.1863 22.5173 82.1863 22.848C82.1863 23.1787 82.0743 23.456 81.8503 23.68C81.6263 23.904 81.3543 24.016 81.0343 24.016ZM81.9303 25.184V34H80.1063V25.184H81.9303Z" fill="white"/>
<path d="M14.4444 3.79312H0V18.9655H14.4444V3.79312Z" fill="white"/>
<path d="M20.6855 6.10516L17.7685 9.35403L28.0785 19.5674L30.9955 16.3186L20.6855 6.10516Z" fill="white"/>
<path d="M20.6856 6.10517C21.324 5.3941 22.0895 4.82206 22.9384 4.42174C23.7874 4.02142 24.703 3.80066 25.6332 3.77205C26.5633 3.74344 27.4896 3.90755 28.3594 4.255C29.2292 4.60245 30.0253 5.12645 30.7022 5.79707C31.3792 6.46769 31.9238 7.2718 32.3049 8.16346C32.686 9.05521 32.8962 10.017 32.9234 10.994C32.9507 11.971 32.7944 12.9441 32.4637 13.8577C32.1329 14.7713 31.634 15.6075 30.9955 16.3186L25.8406 11.2119L20.6856 6.10517Z" fill="white"/>
<path d="M44.5239 18.9655C48.5126 18.9655 51.7461 15.569 51.7461 11.3793C51.7461 7.18955 48.5126 3.79309 44.5239 3.79309C40.5352 3.79309 37.3017 7.18955 37.3017 11.3793C37.3017 15.569 40.5352 18.9655 44.5239 18.9655Z" fill="white"/>
</svg>
