<svg width="57" height="46" viewBox="0 0 57 46" fill="none" xmlns="http://www.w3.org/2000/svg">
<path d="M11.872 25.04C12.5653 25.04 13.184 25.184 13.728 25.472C14.2827 25.76 14.7147 26.1867 15.024 26.752C15.344 27.3173 15.504 28 15.504 28.8V34H13.696V29.072C13.696 28.2827 13.4987 27.68 13.104 27.264C12.7093 26.8373 12.1707 26.624 11.488 26.624C10.8053 26.624 10.2613 26.8373 9.856 27.264C9.46133 27.68 9.264 28.2827 9.264 29.072V34H7.456V29.072C7.456 28.2827 7.25867 27.68 6.864 27.264C6.46933 26.8373 5.93067 26.624 5.248 26.624C4.56533 26.624 4.02133 26.8373 3.616 27.264C3.22133 27.68 3.024 28.2827 3.024 29.072V34H1.2V25.184H3.024V26.192C3.32267 25.8293 3.70133 25.5467 4.16 25.344C4.61867 25.1413 5.10933 25.04 5.632 25.04C6.336 25.04 6.96533 25.1893 7.52 25.488C8.07467 25.7867 8.50133 26.2187 8.8 26.784C9.06667 26.2507 9.48267 25.8293 10.048 25.52C10.6133 25.2 11.2213 25.04 11.872 25.04ZM18.753 24.016C18.4223 24.016 18.145 23.904 17.921 23.68C17.697 23.456 17.585 23.1787 17.585 22.848C17.585 22.5173 17.697 22.24 17.921 22.016C18.145 21.792 18.4223 21.68 18.753 21.68C19.073 21.68 19.345 21.792 19.569 22.016C19.793 22.24 19.905 22.5173 19.905 22.848C19.905 23.1787 19.793 23.456 19.569 23.68C19.345 23.904 19.073 24.016 18.753 24.016ZM19.649 25.184V34H17.825V25.184H19.649ZM23.8678 26.464C24.1344 26.016 24.4864 25.6693 24.9238 25.424C25.3718 25.168 25.8998 25.04 26.5078 25.04V26.928H26.0438C25.3291 26.928 24.7851 27.1093 24.4118 27.472C24.0491 27.8347 23.8678 28.464 23.8678 29.36V34H22.0438V25.184H23.8678V26.464ZM27.5764 29.552C27.5764 28.6667 27.7577 27.8827 28.1204 27.2C28.4937 26.5173 28.995 25.9893 29.6244 25.616C30.2644 25.232 30.9684 25.04 31.7364 25.04C32.4297 25.04 33.0324 25.1787 33.5444 25.456C34.067 25.7227 34.483 26.0587 34.7924 26.464V25.184H36.6324V34H34.7924V32.688C34.483 33.104 34.0617 33.4507 33.5284 33.728C32.995 34.0053 32.387 34.144 31.7044 34.144C30.947 34.144 30.2537 33.952 29.6244 33.568C28.995 33.1733 28.4937 32.6293 28.1204 31.936C27.7577 31.232 27.5764 30.4373 27.5764 29.552ZM34.7924 29.584C34.7924 28.976 34.6644 28.448 34.4084 28C34.163 27.552 33.8377 27.2107 33.4324 26.976C33.027 26.7413 32.5897 26.624 32.1204 26.624C31.651 26.624 31.2137 26.7413 30.8084 26.976C30.403 27.2 30.0724 27.536 29.8164 27.984C29.571 28.4213 29.4484 28.944 29.4484 29.552C29.4484 30.16 29.571 30.6933 29.8164 31.152C30.0724 31.6107 30.403 31.9627 30.8084 32.208C31.2244 32.4427 31.6617 32.56 32.1204 32.56C32.5897 32.56 33.027 32.4427 33.4324 32.208C33.8377 31.9733 34.163 31.632 34.4084 31.184C34.6644 30.7253 34.7924 30.192 34.7924 29.584ZM39.7641 34.112C39.4335 34.112 39.1561 34 38.9321 33.776C38.7081 33.552 38.5961 33.2747 38.5961 32.944C38.5961 32.6133 38.7081 32.336 38.9321 32.112C39.1561 31.888 39.4335 31.776 39.7641 31.776C40.0841 31.776 40.3561 31.888 40.5801 32.112C40.8041 32.336 40.9161 32.6133 40.9161 32.944C40.9161 33.2747 40.8041 33.552 40.5801 33.776C40.3561 34 40.0841 34.112 39.7641 34.112ZM42.2795 29.552C42.2795 28.6667 42.4608 27.8827 42.8235 27.2C43.1968 26.5173 43.6982 25.9893 44.3275 25.616C44.9675 25.232 45.6715 25.04 46.4395 25.04C47.1328 25.04 47.7355 25.1787 48.2475 25.456C48.7702 25.7227 49.1862 26.0587 49.4955 26.464V25.184H51.3355V34H49.4955V32.688C49.1862 33.104 48.7648 33.4507 48.2315 33.728C47.6982 34.0053 47.0902 34.144 46.4075 34.144C45.6502 34.144 44.9568 33.952 44.3275 33.568C43.6982 33.1733 43.1968 32.6293 42.8235 31.936C42.4608 31.232 42.2795 30.4373 42.2795 29.552ZM49.4955 29.584C49.4955 28.976 49.3675 28.448 49.1115 28C48.8662 27.552 48.5408 27.2107 48.1355 26.976C47.7302 26.7413 47.2928 26.624 46.8235 26.624C46.3542 26.624 45.9168 26.7413 45.5115 26.976C45.1062 27.2 44.7755 27.536 44.5195 27.984C44.2742 28.4213 44.1515 28.944 44.1515 29.552C44.1515 30.16 44.2742 30.6933 44.5195 31.152C44.7755 31.6107 45.1062 31.9627 45.5115 32.208C45.9275 32.4427 46.3648 32.56 46.8235 32.56C47.2928 32.56 47.7302 32.4427 48.1355 32.208C48.5408 31.9733 48.8662 31.632 49.1115 31.184C49.3675 30.7253 49.4955 30.192 49.4955 29.584ZM54.6593 24.016C54.3286 24.016 54.0513 23.904 53.8273 23.68C53.6033 23.456 53.4913 23.1787 53.4913 22.848C53.4913 22.5173 53.6033 22.24 53.8273 22.016C54.0513 21.792 54.3286 21.68 54.6593 21.68C54.9793 21.68 55.2513 21.792 55.4753 22.016C55.6993 22.24 55.8113 22.5173 55.8113 22.848C55.8113 23.1787 55.6993 23.456 55.4753 23.68C55.2513 23.904 54.9793 24.016 54.6593 24.016ZM55.5553 25.184V34H53.7313V25.184H55.5553Z" fill="white"/>
<path d="M20.2394 40.501C20.5007 40.5477 20.7224 40.6853 20.9044 40.914C21.0864 41.1427 21.1774 41.4017 21.1774 41.691C21.1774 41.9383 21.112 42.1623 20.9814 42.363C20.8554 42.559 20.671 42.7153 20.4284 42.832C20.1857 42.944 19.9034 43 19.5814 43H17.6354V38.135H19.4904C19.8217 38.135 20.1064 38.191 20.3444 38.303C20.5824 38.415 20.762 38.5667 20.8834 38.758C21.0047 38.9447 21.0654 39.1547 21.0654 39.388C21.0654 39.668 20.9907 39.9013 20.8414 40.088C20.692 40.2747 20.4914 40.4123 20.2394 40.501ZM18.4334 40.179H19.4204C19.6817 40.179 19.8847 40.1207 20.0294 40.004C20.1787 39.8827 20.2534 39.71 20.2534 39.486C20.2534 39.2667 20.1787 39.0963 20.0294 38.975C19.8847 38.849 19.6817 38.786 19.4204 38.786H18.4334V40.179ZM19.5114 42.349C19.782 42.349 19.9944 42.2837 20.1484 42.153C20.3024 42.0223 20.3794 41.8403 20.3794 41.607C20.3794 41.369 20.2977 41.18 20.1344 41.04C19.971 40.9 19.754 40.83 19.4834 40.83H18.4334V42.349H19.5114ZM25.5165 39.143L23.1505 44.813H22.3245L23.1085 42.937L21.5895 39.143H22.4785L23.5635 42.083L24.6905 39.143H25.5165ZM31.9341 43H31.1361L28.7351 39.367V43H27.9371V38.128H28.7351L31.1361 41.754V38.128H31.9341V43ZM36.517 40.977C36.517 41.1217 36.5077 41.2523 36.489 41.369H33.542C33.5654 41.677 33.6797 41.9243 33.885 42.111C34.0904 42.2977 34.3424 42.391 34.641 42.391C35.0704 42.391 35.3737 42.2113 35.551 41.852H36.412C36.2954 42.2067 36.083 42.4983 35.775 42.727C35.4717 42.951 35.0937 43.063 34.641 43.063C34.2724 43.063 33.941 42.9813 33.647 42.818C33.3577 42.65 33.129 42.4167 32.961 42.118C32.7977 41.8147 32.716 41.4647 32.716 41.068C32.716 40.6713 32.7954 40.3237 32.954 40.025C33.1174 39.7217 33.3437 39.4883 33.633 39.325C33.927 39.1617 34.263 39.08 34.641 39.08C35.005 39.08 35.3294 39.1593 35.614 39.318C35.8987 39.4767 36.1204 39.7007 36.279 39.99C36.4377 40.2747 36.517 40.6037 36.517 40.977ZM35.684 40.725C35.6794 40.431 35.5744 40.1953 35.369 40.018C35.1637 39.8407 34.9094 39.752 34.606 39.752C34.3307 39.752 34.095 39.8407 33.899 40.018C33.703 40.1907 33.5864 40.4263 33.549 40.725H35.684ZM40.7953 39.143V43H39.9973V42.545C39.8713 42.7037 39.7057 42.8297 39.5003 42.923C39.2997 43.0117 39.085 43.056 38.8563 43.056C38.553 43.056 38.28 42.993 38.0373 42.867C37.7993 42.741 37.6103 42.5543 37.4703 42.307C37.335 42.0597 37.2673 41.761 37.2673 41.411V39.143H38.0583V41.292C38.0583 41.6373 38.1447 41.9033 38.3173 42.09C38.49 42.272 38.7257 42.363 39.0243 42.363C39.323 42.363 39.5587 42.272 39.7313 42.09C39.9087 41.9033 39.9973 41.6373 39.9973 41.292V39.143H40.7953ZM42.6462 39.703C42.7629 39.507 42.9169 39.3553 43.1082 39.248C43.3042 39.136 43.5352 39.08 43.8012 39.08V39.906H43.5982C43.2856 39.906 43.0476 39.9853 42.8842 40.144C42.7256 40.3027 42.6462 40.578 42.6462 40.97V43H41.8482V39.143H42.6462V39.703ZM46.0258 42.286L47.1178 39.143H47.9648L46.4948 43H45.5428L44.0798 39.143H44.9338L46.0258 42.286ZM50.241 43.063C49.877 43.063 49.548 42.9813 49.254 42.818C48.96 42.65 48.729 42.4167 48.561 42.118C48.393 41.8147 48.309 41.4647 48.309 41.068C48.309 40.676 48.3953 40.3283 48.568 40.025C48.7406 39.7217 48.9763 39.4883 49.275 39.325C49.5736 39.1617 49.9073 39.08 50.276 39.08C50.6446 39.08 50.9783 39.1617 51.277 39.325C51.5756 39.4883 51.8113 39.7217 51.984 40.025C52.1566 40.3283 52.243 40.676 52.243 41.068C52.243 41.46 52.1543 41.8077 51.977 42.111C51.7996 42.4143 51.557 42.65 51.249 42.818C50.9456 42.9813 50.6096 43.063 50.241 43.063ZM50.241 42.37C50.4463 42.37 50.6376 42.321 50.815 42.223C50.997 42.125 51.144 41.978 51.256 41.782C51.368 41.586 51.424 41.348 51.424 41.068C51.424 40.788 51.3703 40.5523 51.263 40.361C51.1556 40.165 51.0133 40.018 50.836 39.92C50.6586 39.822 50.4673 39.773 50.262 39.773C50.0566 39.773 49.8653 39.822 49.688 39.92C49.5153 40.018 49.3776 40.165 49.275 40.361C49.1723 40.5523 49.121 40.788 49.121 41.068C49.121 41.4833 49.226 41.8053 49.436 42.034C49.6506 42.258 49.919 42.37 50.241 42.37ZM54.6838 41.047L55.9298 43H55.0268L54.1938 41.691L53.4098 43H52.5768L53.8228 41.103L52.5768 39.143H53.4798L54.3128 40.452L55.0968 39.143H55.9298L54.6838 41.047Z" fill="white"/>
<path d="M14.4444 3.79312H0V18.9655H14.4444V3.79312Z" fill="white"/>
<path d="M20.6856 6.10516L17.7685 9.35403L28.0785 19.5674L30.9956 16.3186L20.6856 6.10516Z" fill="white"/>
<path d="M20.6856 6.10517C21.324 5.3941 22.0895 4.82206 22.9384 4.42174C23.7874 4.02142 24.703 3.80066 25.6332 3.77205C26.5633 3.74344 27.4897 3.90755 28.3594 4.255C29.2292 4.60245 30.0253 5.12645 30.7022 5.79707C31.3792 6.46769 31.9238 7.2718 32.3049 8.16346C32.686 9.05521 32.8962 10.017 32.9234 10.994C32.9507 11.971 32.7944 12.9441 32.4637 13.8577C32.1329 14.7713 31.634 15.6075 30.9955 16.3186L25.8406 11.2119L20.6856 6.10517Z" fill="white"/>
<path d="M44.5239 18.9655C48.5126 18.9655 51.7461 15.569 51.7461 11.3793C51.7461 7.18955 48.5126 3.79309 44.5239 3.79309C40.5352 3.79309 37.3017 7.18955 37.3017 11.3793C37.3017 15.569 40.5352 18.9655 44.5239 18.9655Z" fill="white"/>
</svg>
